<svg width="883" height="697" viewBox="0 0 883 697" fill="none" xmlns="http://www.w3.org/2000/svg">
<g opacity="0.1" clip-path="url(#clip0_154_84)">
<path fill-rule="evenodd" clip-rule="evenodd" d="M441.192 119.73C294.128 289.612 147.064 459.495 0 629.377C233.905 458.775 467.809 288.071 701.611 117.469C591.75 -7.80979 404.4 -37.6137 267.202 50.9758C129.901 139.565 83.7576 298.245 124.043 436.885C106.778 197.22 247.881 91.3652 441.192 119.73Z" fill="white"/>
<path fill-rule="evenodd" clip-rule="evenodd" d="M441.808 577.271C588.872 407.388 735.936 237.506 883 67.624C649.096 238.226 415.191 408.827 181.286 579.531C291.25 704.913 478.497 734.615 615.798 646.025C752.996 557.436 799.242 398.756 758.854 260.116C776.119 499.78 635.119 605.636 441.808 577.271Z" fill="white"/>
</g>
<defs>
<clipPath id="clip0_154_84">
<rect width="883" height="697" fill="white"/>
</clipPath>
</defs>
</svg>
