<svg width="72" height="14" viewBox="0 0 72 14" fill="none" xmlns="http://www.w3.org/2000/svg">
<g clip-path="url(#clip0_181_623)">
<path fill-rule="evenodd" clip-rule="evenodd" d="M47.4525 7.71072C47.4952 7.99072 47.5165 8.2061 47.5805 8.42149C48.0497 10.4246 49.6066 11.7599 51.6326 11.9323C53.4241 12.083 54.8317 11.3938 55.8767 9.90764C56.3886 9.19687 57.2203 9.06764 57.8814 9.64918C58.2653 9.97226 58.308 10.403 58.0094 10.8123C57.8388 11.0276 57.6895 11.243 57.5189 11.4799C56.8364 12.4276 55.9407 13.0738 54.8317 13.4615C53.0402 14.0861 51.2487 14.1723 49.4786 13.5046C47.09 12.6215 45.6824 10.8553 45.2772 8.33533C45.0426 6.78456 45.1919 5.2338 45.8956 3.8338C46.9193 1.83072 48.5189 0.603027 50.7369 0.236873C52.2085 -5.01871e-05 53.6587 0.150719 55.0236 0.818411C56.9644 1.74457 58.1374 3.31687 58.5852 5.4061C58.7132 5.98764 58.7559 6.56918 58.7985 7.15072C58.8412 7.51687 58.6705 7.66764 58.308 7.68918C58.1374 7.68918 57.9881 7.68918 57.8175 7.68918C54.5118 7.68918 51.2061 7.68918 47.9217 7.68918C47.7724 7.71072 47.6658 7.71072 47.4525 7.71072ZM56.4739 5.5138C56.1966 3.63995 53.9573 2.00303 51.8885 2.13226C49.7345 2.26149 47.6018 3.91995 47.5165 5.5138C50.481 5.5138 53.4881 5.5138 56.4739 5.5138Z" fill="#CECECE"/>
<path fill-rule="evenodd" clip-rule="evenodd" d="M30.519 7.6462C30.5403 7.84005 30.5617 7.96928 30.583 8.12005C30.9882 10.3385 32.7797 11.8677 34.9977 11.9108C36.6825 11.9324 37.9835 11.2431 38.9645 9.86467C39.4764 9.13236 40.3934 9.04621 41.0332 9.69236C41.3318 10.0154 41.3958 10.4031 41.0972 10.7908C40.9692 10.9847 40.8413 11.157 40.692 11.3077C39.9669 12.3847 38.9645 13.0739 37.7489 13.4831C35.9574 14.0862 34.1659 14.1293 32.4384 13.4401C29.9645 12.4708 28.5783 10.5539 28.2797 7.88313C28.1304 6.59082 28.2584 5.34159 28.7915 4.15697C29.8366 1.91697 31.5214 0.53851 33.974 0.215433C35.2749 0.0431252 36.5759 0.150817 37.7702 0.646202C39.9456 1.55082 41.2038 3.25236 41.6944 5.55697C41.7797 6.0739 41.8437 6.6339 41.865 7.15082C41.8863 7.58159 41.801 7.66774 41.3531 7.66774C40.5854 7.66774 39.7749 7.66774 38.9858 7.66774C36.3413 7.66774 33.6967 7.66774 31.0948 7.66774C30.9029 7.6462 30.7323 7.6462 30.519 7.6462ZM39.583 5.44928C39.3057 3.59697 37.1304 2.02466 34.9977 2.06774C32.929 2.11082 30.7749 3.79082 30.6043 5.44928C33.5901 5.44928 36.5546 5.44928 39.583 5.44928Z" fill="#CECECE"/>
<path fill-rule="evenodd" clip-rule="evenodd" d="M67.628 8.63692C67.7987 8.78768 67.884 8.87384 67.9906 8.95999C69.1423 9.95076 70.2939 10.9415 71.4243 11.9323C71.4882 11.9969 71.5949 12.0831 71.6589 12.1477C72.0854 12.5785 72.128 13.2031 71.7228 13.6338C71.3389 14.0646 70.7418 14.1292 70.2939 13.7631C69.4835 13.0954 68.7157 12.4061 67.9266 11.7385C66.7963 10.7692 65.6873 9.79999 64.5569 8.83076C64.4716 8.74461 64.3437 8.65845 64.1731 8.52922C64.1731 8.76615 64.1517 8.91691 64.1517 9.06768C64.1517 11.8031 64.1517 9.75692 64.1517 12.4923C64.1517 12.6215 64.1517 12.7508 64.1517 12.88C64.1091 13.4831 63.6612 13.9138 63.0641 13.8708C62.4882 13.8492 62.1043 13.4185 62.083 12.8154C62.083 12.6861 62.083 12.5569 62.083 12.4277C62.083 7.02153 62.083 6.39692 62.083 0.990761C62.083 0.818453 62.083 0.667684 62.083 0.495376C62.083 0.107684 62.1257 0.0430686 62.4882 0.0430686C62.9787 0.0215301 63.4693 0.0215301 63.9598 0.0215301C65.1328 0.0215301 66.3484 0.0646071 67.5214 -8.33394e-06C69.5048 -0.0861622 71.7228 1.52922 71.9361 3.87692C72.128 5.98768 70.6991 7.99076 68.5664 8.42153C68.2892 8.48615 67.9906 8.5723 67.628 8.63692ZM64.0238 6.97845C64.1517 6.99999 64.237 6.99999 64.301 6.99999C65.2821 6.99999 66.2844 6.99999 67.2655 6.99999C67.5427 6.99999 67.8413 6.97845 68.1186 6.87076C69.0356 6.59076 69.7607 6.03076 69.9953 5.03999C70.4006 3.33845 69.1423 1.78768 67.4148 1.78768C66.3911 1.78768 65.3887 1.78768 64.3437 1.78768C64.2157 1.78768 64.1091 1.80922 63.9811 1.80922C64.0238 3.5323 64.0238 5.23384 64.0238 6.97845Z" fill="#CECECE"/>
<path fill-rule="evenodd" clip-rule="evenodd" d="M22.8413 7.66768C20.8792 7.66768 18.9811 7.66768 17.0403 7.66768C17.0403 7.83999 17.019 7.99076 17.019 8.14153C17.019 9.64922 17.019 11.1354 17.019 12.6431C17.019 12.8369 17.019 13.0308 16.9763 13.1815C16.8271 13.6338 16.3579 13.9138 15.91 13.8923C15.4195 13.8492 15.0143 13.4615 14.9503 12.9661C14.929 12.8369 14.9503 12.7292 14.9503 12.6C14.9503 7.23691 14.929 6.59076 14.929 1.24922C14.929 1.03384 14.9503 0.818453 15.0143 0.624607C15.1849 0.1723 15.6541 -0.0861619 16.1446 -0.0215465C16.5925 0.0430689 16.9763 0.430761 17.019 0.904607C17.0403 1.05538 17.019 1.18461 17.019 1.33538C17.019 4.0923 17.0403 2.1323 17.0403 4.88922C17.0403 5.06153 17.0617 5.2123 17.0617 5.36307C17.4242 5.44922 22.4574 5.44922 22.8413 5.36307C22.8413 5.23384 22.8626 5.10461 22.8626 4.95384C22.8626 3.74768 22.8626 2.51999 22.8626 1.31384C22.8626 1.18461 22.8626 1.07691 22.8626 0.947684C22.9053 0.409223 23.3105 -8.03545e-06 23.8436 -0.0215465C24.3768 -0.043085 24.8673 0.366146 24.9313 0.904607C24.9526 1.03384 24.9313 1.14153 24.9313 1.27076C24.9313 5.03999 24.9313 8.78768 24.9313 12.5569C24.9313 12.6861 24.9313 12.7938 24.9313 12.9231C24.8673 13.4615 24.3981 13.8923 23.865 13.8708C23.3318 13.8492 22.9053 13.4185 22.8413 12.88C22.8413 12.7508 22.8413 12.6431 22.8413 12.5138C22.8413 11.0708 22.8413 9.58461 22.8413 8.14153C22.8413 8.0123 22.8413 7.86153 22.8413 7.66768Z" fill="#CECECE"/>
<path fill-rule="evenodd" clip-rule="evenodd" d="M5.8649 13.9784C4.47865 13.9569 3.1777 13.6553 1.98339 12.923C1.47154 12.6215 1.00234 12.2338 0.618457 11.7815C0.426514 11.5445 0.191916 11.3076 0.106608 11.0061C-0.0213538 10.6184 -0.0426808 10.1876 0.319878 9.84301C0.725092 9.45532 1.27959 9.30455 1.8341 9.6707C2.36727 10.0584 2.6232 10.5538 3.07106 11.0061C3.71087 11.6522 4.54263 11.9969 5.43836 12.1045C6.27011 12.1907 7.08054 12.1692 7.89097 11.8892C8.21087 11.7599 8.55211 11.6092 8.82936 11.3938C9.3412 10.8122 9.49049 9.99378 8.87201 9.43378C8.57343 9.17532 8.18955 8.98147 7.80566 8.80916C6.86727 8.39993 5.88623 8.11993 4.90519 7.86147C4.09476 7.66762 3.32699 7.40916 2.51656 7.17224C2.21798 7.08608 1.9194 6.91378 1.64215 6.76301C0.895708 6.35378 0.469168 5.70762 0.341205 4.88916C0.106608 3.18762 0.725092 1.65839 2.19666 0.904547C4.49997 -0.236991 6.8886 -0.129299 9.19192 1.18455C9.61846 1.42147 10.0237 1.78762 10.3862 2.1107C10.6635 2.34762 10.8767 2.69224 10.9834 3.05839C11.09 3.5107 10.8767 3.98455 10.3222 4.11378C9.85305 4.22147 9.42651 4.0707 9.08528 3.70455C9.0213 3.63993 8.95732 3.55378 8.91466 3.48916C8.38149 2.6707 7.59239 2.21839 6.654 2.04609C5.71561 1.87378 4.77722 1.89532 3.88149 2.26147C3.56158 2.3907 3.22035 2.56301 2.96443 2.79993C2.58054 3.31685 2.43125 4.00609 2.9431 4.65224C3.34831 5.03993 3.81751 5.25532 4.32936 5.36301C5.45969 5.64301 6.61135 5.94455 7.74168 6.22455C8.4668 6.41839 9.17059 6.65532 9.83173 7.04301C10.6848 7.49532 11.3033 8.16301 11.5166 9.13224C11.7725 10.3169 11.5166 11.4369 10.5995 12.2984C9.55447 13.2461 8.36016 13.763 6.97391 13.9138C6.59002 13.9569 6.20613 13.9569 5.8649 13.9784Z" fill="#CECECE"/>
</g>
<defs>
<clipPath id="clip0_181_623">
<rect width="72" height="14" fill="white"/>
</clipPath>
</defs>
</svg>
