<svg width="45" height="45" viewBox="0 0 45 45" fill="none" xmlns="http://www.w3.org/2000/svg">
<path d="M21.9463 1.40625C21.331 1.56446 20.9619 1.82813 20.0215 2.77735C19.5117 3.30469 19.0107 3.83203 18.914 3.95508L18.7383 4.17481L17.4287 3.83203C15.6006 3.34864 15.3457 3.31348 14.8447 3.41895C14.2295 3.55078 13.7988 3.79688 13.4121 4.21875C12.9902 4.68457 12.9111 4.89551 12.4717 6.53028C12.2783 7.25977 12.0674 7.91016 12.0146 7.96289C11.9531 8.01563 11.2763 8.22656 10.5117 8.42871C8.92967 8.85059 8.61326 8.98242 8.15623 9.46582C7.33885 10.3096 7.28611 11.0566 7.86619 13.1836L8.25291 14.6338L7.08396 15.8203C6.43357 16.4707 5.83592 17.1387 5.75682 17.2969C5.44041 17.9385 5.4492 18.9932 5.77439 19.6436C5.8535 19.7842 6.43357 20.4434 7.08396 21.0938L8.25291 22.2803L7.8574 23.7305C7.51463 24.9961 7.46189 25.2686 7.49705 25.8398C7.53221 26.6309 7.73435 27.0615 8.27928 27.5625C8.75389 27.9932 8.85935 28.0371 10.6172 28.5117C11.4082 28.7227 12.0674 28.916 12.0762 28.9336C12.0849 28.9424 12.208 29.373 12.3398 29.8828C12.8496 31.8691 12.9814 32.2119 13.4033 32.6777C13.6406 32.9414 13.9746 33.1875 14.2558 33.3105C14.792 33.5479 15.082 33.5566 17.666 33.3984L19.2832 33.3018L20.1709 34.1807C20.6543 34.6553 21.1728 35.1123 21.331 35.1914C22.122 35.5869 23.1504 35.543 23.8623 35.0947C24.0556 34.9717 24.5742 34.5147 25.0137 34.0928L25.8047 33.3105L27.4306 33.4072C30.4101 33.583 30.7002 33.5479 31.4472 32.9238C31.9131 32.5283 32.1328 32.0361 32.5547 30.4629C32.7744 29.6455 32.9853 28.9512 33.0205 28.916C33.0556 28.8809 33.7236 28.6875 34.4883 28.4854C36.0615 28.0723 36.5537 27.8701 36.9228 27.4395C37.7051 26.5518 37.7578 25.8047 37.1865 23.7041L36.8086 22.3154L37.9863 21.1113C39.2871 19.7754 39.5508 19.3359 39.5508 18.457C39.5508 17.5781 39.2871 17.1387 37.9863 15.8027L36.8086 14.5986L37.1865 13.21C37.749 11.1357 37.6963 10.3535 36.9228 9.47461C36.5361 9.03516 36.1318 8.85938 34.4707 8.41113C33.6885 8.19141 33.0205 7.99805 32.9941 7.98047C32.9765 7.9541 32.7744 7.26856 32.5547 6.45117C32.1328 4.87793 31.9131 4.38574 31.4472 3.99024C30.6035 3.27832 29.8301 3.23438 27.8789 3.76172C27.1406 3.96387 26.4814 4.13086 26.4111 4.13086C26.3496 4.13086 25.8135 3.6211 25.2246 2.98829C24.4336 2.14454 24.0381 1.79297 23.7041 1.63477C23.1855 1.38868 22.4385 1.292 21.9463 1.40625ZM24.3633 7.86621C27.7383 8.45508 30.6211 10.5381 32.247 13.5527C33.082 15.0908 33.4775 16.5234 33.5478 18.29C33.6269 20.2852 33.3105 21.8057 32.4404 23.5986C31.2099 26.1123 29.1709 28.0107 26.6308 29.0303C20.6191 31.4297 13.8515 28.1865 11.9619 21.999C11.5752 20.7422 11.4873 20.1357 11.4873 18.8086C11.4873 16.9189 11.8037 15.5654 12.6123 13.9219C14.1943 10.6963 17.0508 8.55176 20.6543 7.86621C21.4629 7.70801 23.4756 7.70801 24.3633 7.86621Z" fill="white"/>
<path d="M20.8302 10.2393C19.0108 10.6436 17.6397 11.3818 16.4005 12.6211C14.9503 14.0713 14.1065 15.8467 13.8956 17.9033C13.5264 21.4893 15.4425 24.9434 18.6768 26.543C20.1095 27.2461 20.6895 27.3779 22.5001 27.3779C23.8448 27.3779 24.1261 27.3516 24.7325 27.1758C26.3761 26.7012 27.6768 25.9365 28.7491 24.8115C30.3048 23.1768 31.087 21.3398 31.1749 19.1162C31.3419 15.0381 28.7755 11.5225 24.7852 10.3711C23.9151 10.1162 21.6915 10.0459 20.8302 10.2393ZM28.1866 15.3896C28.6436 15.8203 28.7667 16.3213 28.5294 16.7695C28.4591 16.9014 26.921 18.4834 25.1104 20.2939C21.9024 23.4932 21.8145 23.5723 21.4278 23.6162C21.1729 23.6514 20.9444 23.6162 20.7774 23.5283C20.6368 23.458 19.6085 22.4736 18.4923 21.3398C16.295 19.1338 16.2598 19.0723 16.4884 18.4043C16.629 17.9912 16.8311 17.7803 17.2003 17.6572C17.8507 17.4463 18.0177 17.5518 19.7139 19.2305L21.2696 20.7773L24.0206 18.0439C25.5323 16.5322 26.8595 15.2578 26.9825 15.2139C27.3341 15.0645 27.9317 15.1523 28.1866 15.3896Z" fill="white"/>
<path d="M4.21881 31.6581C2.89166 32.9238 1.72272 34.0576 1.63482 34.1718C1.37994 34.497 1.35357 35.2177 1.5733 35.5693C1.95123 36.1757 1.88092 36.1669 5.5108 36.1933L8.78033 36.2197L8.8067 39.4892C8.83307 43.1191 8.82428 43.0488 9.43072 43.4267C9.78228 43.6464 10.503 43.6201 10.8282 43.3652C11.1358 43.1191 18.1055 35.8329 18.0704 35.789C18.044 35.7714 17.3848 35.7978 16.5938 35.8505C14.5635 35.9824 13.7725 35.8329 12.6124 35.1035C12.085 34.7695 11.3643 34.0312 11.0567 33.4863C10.7754 33.0029 10.5206 32.3173 10.3184 31.5351C10.2393 31.2099 10.1338 30.9111 10.0723 30.8671C10.0196 30.8232 9.64166 30.7001 9.22857 30.5947C8.31451 30.3574 7.67291 30.0673 7.1192 29.663C6.89068 29.496 6.68854 29.3554 6.67096 29.3554C6.65338 29.3642 5.54596 30.4013 4.21881 31.6581Z" fill="white"/>
<path d="M37.8371 29.7158C37.3713 30.0849 36.6154 30.4013 35.675 30.6298C35.3586 30.7089 35.0509 30.8056 34.9982 30.8408C34.9367 30.8759 34.7873 31.2802 34.673 31.7372C34.1369 33.7587 33.047 35.0068 31.2541 35.6572C30.5685 35.9033 29.8918 35.9472 28.4504 35.8417C27.6945 35.789 27.0441 35.7714 27.0177 35.7978C26.9386 35.8769 34.1369 43.3652 34.4093 43.4882C34.9631 43.7431 35.7277 43.5234 36.0353 43.0224C36.2023 42.7499 36.2111 42.5917 36.2111 39.4716V36.2109H39.4015C42.5304 36.2109 42.6007 36.2109 42.9787 36.0087C43.2951 35.8593 43.4093 35.7363 43.5412 35.4023C43.6906 35.0419 43.6994 34.9453 43.5939 34.5937C43.4884 34.2245 43.2511 33.9697 40.9308 31.7724C39.5334 30.4453 38.3644 29.3554 38.3293 29.3642C38.3029 29.3642 38.0832 29.5224 37.8371 29.7158Z" fill="white"/>
</svg>
