<svg width="40" height="40" viewBox="0 0 40 40" fill="none" xmlns="http://www.w3.org/2000/svg">
<g clip-path="url(#clip0_172_492)">
<path d="M9.78906 4.94531C4.40625 7.65625 0 9.90625 0 9.9375C0 9.97656 9 10 20 10C31 10 40 9.96875 40 9.9375C40 9.90625 35.5859 7.65625 30.2031 4.9375C20.8438 0.226562 20.3828 0 19.9844 0C19.5938 0.0078125 18.9922 0.296875 9.78906 4.94531Z" fill="white"/>
<path d="M0 15.5859V18.9062H1.48438H2.96875V15.5859V12.2656H1.48438H0V15.5859Z" fill="white"/>
<path d="M5.23438 15.5859V18.9062H6.75781H8.28125V15.5859V12.2656H6.75781H5.23438V15.5859Z" fill="white"/>
<path d="M10.5469 15.5859V18.9062H12.0703H13.5938V15.5859V12.2656H12.0703H10.5469V15.5859Z" fill="white"/>
<path d="M15.8594 15.5859V18.9062H17.3438H18.8281V15.5859V12.2656H17.3438H15.8594V15.5859Z" fill="white"/>
<path d="M21.1719 15.5859V18.9062H22.6562H24.1406V15.5859V12.2656H22.6562H21.1719V15.5859Z" fill="white"/>
<path d="M26.4062 15.5859V18.9062H27.9297H29.4531V15.5859V12.2656H27.9297H26.4062V15.5859Z" fill="white"/>
<path d="M31.7188 15.5859V18.9062H33.2422H34.7656V15.5859V12.2656H33.2422H31.7188V15.5859Z" fill="white"/>
<path d="M37.0312 15.5859V18.9062H38.5156H40V15.5859V12.2656H38.5156H37.0312V15.5859Z" fill="white"/>
<path d="M0 30.25C0 38.9453 0.0078125 39.2656 0.148438 39.4844C0.484375 39.9922 0.507812 40 3.03125 40H5.3125V35.9531C5.3125 32.1719 5.32031 31.8906 5.46094 31.6406C5.53906 31.4922 5.71875 31.2891 5.85938 31.1875L6.11719 31.0156H19.9922C33.7031 31.0156 33.8672 31.0156 34.125 31.1719C34.2656 31.2578 34.4453 31.4375 34.5312 31.5781C34.6797 31.8281 34.6875 31.9844 34.6875 35.9141V40H36.9766C39.4922 40 39.5156 39.9922 39.8516 39.4844C39.9922 39.2656 40 38.9453 40 30.25V21.25H20H0V30.25Z" fill="white"/>
<path d="M7.57812 36.6406V40H10.9766H14.375V36.6406V33.2812H13.2422H12.1094V33.8828C12.1094 34.5625 11.9766 34.9297 11.6328 35.1797C11.1094 35.5547 10.3047 35.3594 10 34.7656C9.88281 34.5391 9.84375 34.3047 9.84375 33.8672V33.2812H8.71094H7.57812V36.6406Z" fill="white"/>
<path d="M16.6406 36.6406V40H20H23.3594V36.6406V33.2812H22.2734H21.1953L21.1484 33.9531C21.1172 34.4453 21.0703 34.6797 20.9609 34.8281C20.4297 35.5391 19.5469 35.5469 19.0859 34.8516C18.9375 34.625 18.9062 34.4844 18.9062 33.9375V33.2812H17.7734H16.6406V36.6406Z" fill="white"/>
<path d="M25.625 36.6406V40H29.0234H32.4219V36.6406V33.2812H31.2891H30.1562V33.9375C30.1562 34.4844 30.125 34.625 29.9766 34.8516C29.6328 35.3672 28.9844 35.5312 28.5156 35.2109C28.0469 34.8984 27.9453 34.6797 27.9062 33.9453L27.8672 33.2812H26.75H25.625V36.6406Z" fill="white"/>
</g>
<defs>
<clipPath id="clip0_172_492">
<rect width="40" height="40" fill="white"/>
</clipPath>
</defs>
</svg>
