<svg width="45" height="45" viewBox="0 0 45 45" fill="none" xmlns="http://www.w3.org/2000/svg">
<path d="M0.580078 5.35254C0.448242 5.44043 0.254883 5.63379 0.166992 5.76562C0.00878906 6.01172 0 6.37207 0 16.0576V26.1035H15.7764H31.5527L31.5352 16.1016L31.5088 6.1084L31.3154 5.80078C30.9287 5.17676 30.9639 5.18554 27.4746 5.18554H24.3545L24.3281 9.50976C24.3018 13.5352 24.293 13.8604 24.1436 14.1064C23.8623 14.5547 23.5635 14.7217 23.0273 14.7217C22.4912 14.7217 22.1924 14.5547 21.9111 14.1064C21.7617 13.8604 21.7529 13.5352 21.7266 9.50976L21.7002 5.18554H19.3799H17.0596L17.0332 9.50976C17.0068 13.834 17.0068 13.8428 16.8047 14.1592C16.541 14.5898 16.0928 14.8008 15.5654 14.7393C15.2402 14.7041 15.1084 14.625 14.8359 14.335L14.502 13.9834V9.58008V5.18554H12.2607H10.0195V9.50976C10.0195 13.6758 10.0107 13.8516 9.84375 14.1328C9.31641 14.9941 8.12988 14.959 7.67285 14.0625C7.4707 13.6758 7.4707 13.6582 7.4707 9.43066V5.18554H4.15723C1.05469 5.18554 0.817383 5.19433 0.580078 5.35254Z" fill="white"/>
<path d="M34.1016 17.7979V26.1035H39.5508H45V23.8623V21.6211H41.9854C38.6279 21.6211 38.584 21.6123 38.1709 21.0059L37.9688 20.7158V15.1084V9.49219H36.0352H34.1016V17.7979Z" fill="white"/>
<path d="M40.5176 14.3262V19.0723H42.7588H45V16.5938C45 14.2031 44.9912 14.0889 44.7803 13.4121C44.499 12.5068 44.165 11.9268 43.5146 11.2324C42.8203 10.4941 41.7305 9.86133 40.7637 9.63281L40.5176 9.58008V14.3262Z" fill="white"/>
<path d="M0 31.4121C0 34.1279 0 34.1631 0.202148 34.4619C0.518555 34.9453 0.878906 35.0684 1.89844 35.0684H2.79492L2.85645 34.5586C3.1377 32.1328 4.88672 29.8477 7.13672 28.9512C7.37402 28.8545 7.55859 28.7578 7.55859 28.7139C7.55859 28.6787 5.8623 28.6523 3.7793 28.6523H0V31.4121Z" fill="white"/>
<path d="M11.9531 28.6875C11.9531 28.7139 12.3223 28.9072 12.7705 29.127C14.8975 30.1729 16.4004 32.2119 16.6729 34.4531L16.7432 35.0244L21.1465 35.0508L25.5586 35.0684L25.6201 34.5674C25.9014 32.1328 27.6504 29.8477 29.9004 28.9512C30.1377 28.8545 30.3223 28.7578 30.3223 28.7139C30.3223 28.6787 26.1914 28.6523 21.1377 28.6523C16.084 28.6523 11.9531 28.6699 11.9531 28.6875Z" fill="white"/>
<path d="M34.7168 28.6876C34.7168 28.714 35.0859 28.9073 35.5342 29.1271C37.6875 30.1818 39.1553 32.2032 39.4453 34.4972L39.5068 35.0245L41.748 35.0509C44.2617 35.0685 44.4111 35.0421 44.7979 34.462C45 34.1632 45 34.128 45 31.4122V28.6525H39.8584C37.0283 28.6525 34.7168 28.67 34.7168 28.6876Z" fill="white"/>
<path d="M9.18457 30.9904C8.05957 31.2277 7.36523 31.5792 6.69727 32.2384C5.79199 33.1261 5.36133 34.1544 5.36133 35.4464C5.36133 36.6154 5.80957 37.6613 6.66211 38.5314C8.34961 40.2364 11.1709 40.2364 12.8672 38.5402C13.7637 37.6437 14.168 36.7032 14.1768 35.464C14.1855 34.1896 13.79 33.2052 12.9375 32.3175C11.9971 31.3507 10.3271 30.753 9.18457 30.9904Z" fill="white"/>
<path d="M31.9043 30.9903C30.9375 31.1837 30.1025 31.6055 29.4609 32.2384C28.5645 33.126 28.125 34.1632 28.125 35.4288C28.125 36.6153 28.5645 37.6612 29.4258 38.5313C31.3594 40.4825 34.6729 40.1573 36.2021 37.8809C37.5908 35.7891 37.0195 33.0206 34.9102 31.6671C34.6465 31.5001 34.2158 31.2891 33.9434 31.1925C33.4512 31.0167 32.3262 30.9112 31.9043 30.9903Z" fill="white"/>
</svg>
