<svg width="240" height="49" viewBox="0 0 240 49" fill="none" xmlns="http://www.w3.org/2000/svg">
<g clip-path="url(#clip0_149_323)">
<path fill-rule="evenodd" clip-rule="evenodd" d="M31.2398 8.41675C20.8265 20.3597 10.4133 32.3026 0 44.2456C16.5623 32.2521 33.1245 20.2513 49.6795 8.2578C41.9005 -0.549487 28.6347 -2.64474 18.92 3.58322C9.19802 9.81117 5.93069 20.9666 8.78324 30.7131C7.56072 13.8644 17.5519 6.42265 31.2398 8.41675Z" fill="url(#paint0_angular_149_323)"/>
<path fill-rule="evenodd" clip-rule="evenodd" d="M31.2834 40.583C41.6967 28.64 52.1099 16.6971 62.5232 4.75415C45.961 16.7477 29.3987 28.7412 12.8364 40.7419C20.6227 49.5564 33.8813 51.6444 43.6032 45.4165C53.3179 39.1885 56.5925 28.0331 53.7327 18.2866C54.9552 35.1353 44.9713 42.5771 31.2834 40.583Z" fill="#0089CD"/>
<path d="M72.0487 20.6707V2.84657H75.0322V10.7507H76.2329L80.097 2.84657H83.3061L78.9545 11.4154L83.4298 20.6779H80.1552L76.393 12.622H75.0322V20.6779H72.0487V20.6707ZM90.4811 21.0319C89.4842 21.0319 88.6037 20.9235 87.8396 20.6996C87.0683 20.4756 86.4788 20.0276 86.0568 19.3413C85.6347 18.6549 85.4237 17.6217 85.4237 16.2345V6.5819C85.4237 5.49815 85.642 4.66727 86.0713 4.0965C86.5007 3.52572 87.1046 3.12835 87.8687 2.90437C88.6401 2.6804 89.5206 2.57202 90.5102 2.57202C91.4999 2.57202 92.395 2.68762 93.1736 2.91882C93.9522 3.15002 94.5635 3.55462 95.0074 4.1254C95.4513 4.69617 95.6696 5.51982 95.6696 6.5819V16.2345C95.6696 17.6217 95.4513 18.6549 95.0074 19.3413C94.5635 20.0276 93.9522 20.4756 93.1736 20.6996C92.395 20.9235 91.4999 21.0319 90.4811 21.0319ZM90.5102 19.3702C91.1579 19.3702 91.6818 19.2329 92.0821 18.9511C92.4823 18.6693 92.6788 18.0769 92.6788 17.1738V6.4952C92.6788 5.59207 92.475 4.99962 92.0602 4.7323C91.6527 4.45775 91.1288 4.3277 90.503 4.3277C89.8553 4.3277 89.3241 4.46497 88.9166 4.7323C88.5091 5.00685 88.2981 5.59207 88.2981 6.4952V17.1738C88.2981 18.0769 88.5018 18.6693 88.9166 18.9511C89.3314 19.2329 89.8626 19.3702 90.5102 19.3702ZM98.755 20.6707V2.84657H102.386L105.726 15.7215L109.103 2.84657H112.705V20.6707H110.078V6.82755L106.767 20.6707H104.693L101.382 6.82755V20.6707H98.755ZM115.565 20.6707V2.84657H125.687V20.6707H122.572V4.80455H118.679V20.6707H115.565ZM127.281 20.6707L131.079 2.84657H135.198L138.931 20.6707H135.656L134.849 16.9931H131.181L130.431 20.6707H127.281ZM131.239 15.5698H134.812L133.058 5.58485L131.239 15.5698ZM141.005 20.6707V2.84657H143.959V10.3534H148.274V2.84657H151.229V20.6707H148.274V12.4342H143.959V20.6707H141.005ZM154.081 20.6707V2.84657H156.745V15.093L161.642 2.84657H164.269V20.6707H161.642V9.02395L156.745 20.6634H154.081V20.6707ZM177.346 20.6707V2.84657H170.789C169.618 2.84657 168.701 3.09945 168.031 3.59797C167.362 4.10372 167.027 4.8479 167.027 5.8305V8.6627C167.027 9.6453 167.325 10.4401 167.922 11.047C168.519 11.6466 169.385 11.979 170.535 12.044C169.8 12.1018 169.276 12.333 168.963 12.7232C168.65 13.1133 168.366 13.713 168.104 14.515L166.219 20.6707H169.465L171.022 14.6956C171.175 14.1898 171.364 13.7491 171.59 13.3517C171.815 12.9616 172.15 12.7665 172.579 12.7665H174.268V20.6707H177.346ZM174.26 10.8374H172.084C171.393 10.8374 170.862 10.6713 170.498 10.3389C170.127 10.0066 169.945 9.42855 169.945 8.6049V6.31458C169.945 5.6282 170.12 5.1369 170.462 4.83345C170.811 4.53 171.219 4.37827 171.692 4.37827H174.253V10.8374H174.26ZM72.0487 44.8528V27.0287H82.1709V44.8528H79.0564V28.9939H75.1632V44.86H72.0487V44.8528ZM85.0598 44.8528V27.0287H91.4854C92.6569 27.0287 93.5738 27.2815 94.2433 27.7801C94.9128 28.2858 95.2475 29.03 95.2475 30.0126V33.1772C95.2475 33.943 95.1384 34.6438 94.9201 35.2869C94.7018 35.9299 94.3088 36.4501 93.7339 36.8402C93.159 37.2304 92.3368 37.4255 91.2525 37.4255H88.138V44.8455H85.0598V44.8528ZM88.1452 35.8649H90.2556C90.925 35.8649 91.4344 35.6264 91.7837 35.1568C92.133 34.6872 92.3004 33.9286 92.3004 32.8809V31.1614C92.3004 30.2582 92.1403 29.6008 91.8274 29.1889C91.5145 28.7771 91.1215 28.5676 90.6412 28.5676H88.1452V35.8649ZM102.488 45.214C101.491 45.214 100.611 45.1056 99.8465 44.8817C99.0752 44.6577 98.4857 44.2097 98.0637 43.5234C97.6416 42.837 97.4306 41.8038 97.4306 40.4166V30.7712C97.4306 29.6875 97.6489 28.8566 98.0782 28.2858C98.5076 27.715 99.1116 27.3177 99.8756 27.0937C100.647 26.8697 101.528 26.7613 102.517 26.7613C103.507 26.7613 104.402 26.8769 105.181 27.1081C105.959 27.3393 106.57 27.7439 107.014 28.3147C107.458 28.8855 107.676 29.7091 107.676 30.7712V40.4238C107.676 41.811 107.458 42.8442 107.014 43.5306C106.57 44.217 105.959 44.6649 105.181 44.8889C104.402 45.1056 103.507 45.214 102.488 45.214ZM102.517 43.5595C103.165 43.5595 103.689 43.4222 104.089 43.1404C104.489 42.8587 104.686 42.2662 104.686 41.3631V30.6773C104.686 29.7742 104.482 29.1817 104.067 28.9144C103.66 28.6398 103.136 28.5098 102.51 28.5098C101.862 28.5098 101.331 28.6471 100.924 28.9144C100.516 29.1889 100.305 29.7742 100.305 30.6773V41.3559C100.305 42.259 100.509 42.8514 100.924 43.1332C101.338 43.415 101.87 43.5595 102.517 43.5595ZM110.762 44.8528V27.0287H114.393L117.733 39.9036L121.11 27.0287H124.712V44.8528H122.085V31.0096L118.774 44.8528H116.7L113.389 31.0096V44.8528H110.762ZM132.957 45.214C131.938 45.214 131.043 45.1056 130.264 44.8817C129.485 44.6577 128.881 44.2097 128.445 43.5234C128.015 42.837 127.797 41.8038 127.797 40.4166V30.7712C127.797 29.6875 128.015 28.8566 128.445 28.2858C128.874 27.715 129.485 27.3177 130.279 27.0937C131.065 26.8697 131.974 26.7613 132.986 26.7613C134.004 26.7613 134.892 26.8769 135.649 27.1081C136.406 27.3393 136.995 27.7439 137.417 28.3147C137.839 28.8855 138.05 29.7091 138.05 30.7712V34.2103H135.067V30.6845C135.067 29.738 134.87 29.1384 134.47 28.8783C134.07 28.6182 133.568 28.4881 132.964 28.4881C132.338 28.4881 131.829 28.6182 131.436 28.8783C131.043 29.1384 130.853 29.7453 130.853 30.6845V41.3631C130.853 42.3096 131.05 42.9092 131.436 43.1693C131.821 43.4294 132.331 43.5595 132.964 43.5595C133.59 43.5595 134.099 43.4294 134.492 43.1693C134.878 42.9092 135.074 42.3023 135.074 41.3631V38.2202H138.058V40.4238C138.058 41.811 137.847 42.8442 137.425 43.5306C137.002 44.217 136.406 44.6649 135.642 44.8889C134.863 45.1056 133.975 45.214 132.957 45.214ZM140.968 44.8528V27.0287H149.533V28.9866H144.047V34.5066H148.558V36.6813H144.047V42.9237H149.533V44.8528H140.968ZM151.935 44.8528V27.0287H158.36C159.532 27.0287 160.449 27.2815 161.118 27.7801C161.788 28.2858 162.122 29.03 162.122 30.0126V33.1772C162.122 33.943 162.013 34.6438 161.795 35.2869C161.577 35.9299 161.184 36.4501 160.609 36.8402C160.034 37.2304 159.212 37.4255 158.127 37.4255H155.013V44.8455H151.935V44.8528ZM155.02 35.8649H157.13C157.8 35.8649 158.309 35.6264 158.659 35.1568C159.008 34.6872 159.175 33.9286 159.175 32.8809V31.1614C159.175 30.2582 159.015 29.6008 158.702 29.1889C158.389 28.7771 157.996 28.5676 157.516 28.5676H155.02V35.8649ZM164.56 44.8528V27.0287H170.949C172.099 27.0287 173.001 27.2815 173.656 27.7801C174.319 28.2858 174.646 29.03 174.646 30.0126V32.0934C174.646 33.1988 174.319 34.0442 173.671 34.6294C173.409 34.8678 173.103 35.0484 172.747 35.1568C172.39 35.2652 172.063 35.3302 171.757 35.3519C172.128 35.3736 172.485 35.4241 172.827 35.5036C173.176 35.5831 173.489 35.7348 173.765 35.9588C174.093 36.2622 174.355 36.6307 174.559 37.0714C174.762 37.5122 174.864 38.0396 174.864 38.6393V41.1391C174.864 42.1434 174.682 42.9165 174.326 43.4439C173.969 43.9785 173.474 44.347 172.834 44.5421C172.194 44.7444 171.444 44.8455 170.578 44.8455H164.56V44.8528ZM167.544 34.7811H169.683C170.353 34.7811 170.869 34.5933 171.24 34.2103C171.611 33.8274 171.793 33.235 171.793 32.433V30.5039C171.793 29.8175 171.626 29.3262 171.291 29.0228C170.957 28.7193 170.549 28.5676 170.076 28.5676H167.544V34.7811ZM167.544 43.35H169.945C170.527 43.35 171 43.2055 171.357 42.9092C171.713 42.6202 171.895 41.97 171.895 40.9657V38.7043C171.895 37.8228 171.692 37.2448 171.277 36.9703C170.869 36.6957 170.36 36.5657 169.749 36.5657H167.544V43.35ZM177.346 44.8528V27.0287H180.009V39.2751L184.906 27.0287H187.533V44.8528H184.906V33.2133L180.009 44.8528H177.346ZM195.356 45.214C194.337 45.214 193.442 45.1056 192.664 44.8817C191.885 44.6577 191.281 44.2097 190.844 43.5234C190.415 42.837 190.197 41.8038 190.197 40.4166V30.7712C190.197 29.6875 190.415 28.8566 190.844 28.2858C191.274 27.715 191.885 27.3177 192.678 27.0937C193.471 26.8697 194.374 26.7613 195.385 26.7613C196.404 26.7613 197.292 26.8769 198.049 27.1081C198.805 27.3393 199.395 27.7439 199.817 28.3147C200.239 28.8855 200.45 29.7091 200.45 30.7712V34.2103H197.466V30.6845C197.466 29.738 197.263 29.1384 196.87 28.8783C196.469 28.6182 195.967 28.4881 195.363 28.4881C194.738 28.4881 194.228 28.6182 193.835 28.8783C193.442 29.1384 193.253 29.7453 193.253 30.6845V41.3631C193.253 42.3096 193.45 42.9092 193.835 43.1693C194.221 43.4294 194.73 43.5595 195.363 43.5595C195.996 43.5595 196.499 43.4294 196.892 43.1693C197.284 42.9092 197.474 42.3023 197.474 41.3631V38.2202H200.457V40.4238C200.457 41.811 200.246 42.8442 199.824 43.5306C199.402 44.217 198.805 44.6649 198.041 44.8889C197.263 45.1056 196.368 45.214 195.356 45.214ZM202.982 37.5844V35.7131H209.67V37.5844H202.982Z" fill="#363636"/>
<path d="M223.809 45.214C222.79 45.214 221.895 45.1057 221.116 44.8817C220.338 44.6577 219.726 44.2098 219.283 43.5234C218.839 42.837 218.62 41.7966 218.62 40.3877V36.6163H215.113V44.8528H212.129V27.0287H215.113V34.5355H218.62V30.7929C218.62 29.7092 218.839 28.8711 219.283 28.2931C219.726 27.7079 220.345 27.3105 221.131 27.0865C221.924 26.8625 222.826 26.7542 223.838 26.7542C224.857 26.7542 225.744 26.8698 226.516 27.101C227.287 27.3322 227.877 27.7368 228.299 28.3075C228.721 28.8783 228.932 29.7092 228.932 30.7929V40.3877C228.932 41.7966 228.721 42.8442 228.299 43.5234C227.877 44.2098 227.28 44.6577 226.516 44.8817C225.752 45.1057 224.849 45.214 223.809 45.214ZM223.845 43.5595C224.449 43.5595 224.951 43.4367 225.352 43.1838C225.752 42.9309 225.948 42.3457 225.948 41.4209V30.6195C225.948 29.7164 225.744 29.1384 225.352 28.8855C224.951 28.6327 224.449 28.5098 223.845 28.5098C223.219 28.5098 222.71 28.6327 222.317 28.8855C221.924 29.1384 221.735 29.7164 221.735 30.6195V41.4137C221.735 42.3385 221.931 42.9237 222.317 43.1766C222.71 43.4295 223.219 43.5595 223.845 43.5595ZM231.37 44.8528V27.0287H240V28.9867H234.484V44.8528H231.37Z" fill="#0089CD"/>
</g>
<defs>
<radialGradient id="paint0_angular_149_323" cx="0" cy="0" r="1" gradientUnits="userSpaceOnUse" gradientTransform="translate(32.7461 22.3971) rotate(-32.8015) scale(49.3466 49.7596)">
<stop offset="0.0259647" stop-color="#ECECEC"/>
<stop offset="0.484375" stop-color="#5C5F63"/>
<stop offset="0.573408" stop-color="#CFD0D1"/>
<stop offset="0.744792" stop-color="#C1C1C1"/>
<stop offset="0.83216" stop-color="#D8DBDD"/>
<stop offset="0.92915" stop-color="#B4B4B5"/>
</radialGradient>
<clipPath id="clip0_149_323">
<rect width="240" height="49" fill="white"/>
</clipPath>
</defs>
</svg>
