<svg width="292" height="60" viewBox="0 0 292 60" fill="none" xmlns="http://www.w3.org/2000/svg">
<g clip-path="url(#clip0_181_618)">
<path fill-rule="evenodd" clip-rule="evenodd" d="M38.0084 10.3066C25.339 24.9306 12.6695 39.5546 0 54.1786C20.1508 39.4927 40.3015 24.7979 60.4434 10.112C50.9789 -0.672445 34.8388 -3.23806 23.0193 4.38801C11.1909 12.0141 7.21567 25.6738 10.6863 37.6083C9.19887 16.9772 21.3548 7.86486 38.0084 10.3066Z" fill="url(#paint0_angular_181_618)"/>
<path fill-rule="evenodd" clip-rule="evenodd" d="M38.0615 49.6933C50.731 35.0693 63.4005 20.4453 76.0699 5.82129C55.9192 20.5072 35.7684 35.1932 15.6177 49.8879C25.091 60.6812 41.2222 63.238 53.0506 55.6119C64.8702 47.9858 68.8543 34.3262 65.3748 22.3916C66.8622 43.0227 54.7151 52.1351 38.0615 49.6933Z" fill="#0089CD"/>
<path d="M87.6593 25.3111V3.48572H91.2893V13.1643H92.7501L97.4514 3.48572H101.356L96.0613 13.9782L101.506 25.32H97.5222L92.9449 15.4556H91.2893V25.32H87.6593V25.3111ZM110.085 25.7535C108.872 25.7535 107.801 25.6208 106.872 25.3465C105.933 25.0723 105.216 24.5238 104.702 23.6833C104.189 22.8428 103.932 21.5777 103.932 19.8791V8.05959C103.932 6.73255 104.198 5.71515 104.72 5.01624C105.243 4.31733 105.977 3.83075 106.907 3.5565C107.845 3.28224 108.917 3.14954 110.121 3.14954C111.325 3.14954 112.414 3.29109 113.361 3.57419C114.309 3.85729 115.052 4.35272 115.592 5.05163C116.132 5.75054 116.398 6.75909 116.398 8.05959V19.8791C116.398 21.5777 116.132 22.8428 115.592 23.6833C115.052 24.5238 114.309 25.0723 113.361 25.3465C112.414 25.6208 111.325 25.7535 110.085 25.7535ZM110.121 23.7187C110.909 23.7187 111.546 23.5506 112.033 23.2056C112.52 22.8605 112.759 22.1351 112.759 21.0292V7.95343C112.759 6.84756 112.511 6.12211 112.007 5.79477C111.511 5.45859 110.873 5.29934 110.112 5.29934C109.324 5.29934 108.678 5.46744 108.182 5.79477C107.686 6.13096 107.429 6.84756 107.429 7.95343V21.0292C107.429 22.1351 107.677 22.8605 108.182 23.2056C108.687 23.5506 109.333 23.7187 110.121 23.7187ZM120.152 25.3111V3.48572H124.57L128.634 19.251L132.742 3.48572H137.124V25.3111H133.928V8.36039L129.9 25.3111H127.376L123.348 8.36039V25.3111H120.152ZM140.604 25.3111V3.48572H152.919V25.3111H149.13V5.88324H144.393V25.3111H140.604ZM154.858 25.3111L159.48 3.48572H164.491L169.033 25.3111H165.048L164.066 20.808H159.604L158.692 25.3111H154.858ZM159.674 19.0652H164.021L161.888 6.83871L159.674 19.0652ZM171.556 25.3111V3.48572H175.15V12.6777H180.401V3.48572H183.995V25.3111H180.401V15.2256H175.15V25.3111H171.556ZM187.466 25.3111V3.48572H190.706V18.4813L196.665 3.48572H199.861V25.3111H196.665V11.0499L190.706 25.3023H187.466V25.3111ZM215.771 25.3111V3.48572H207.794C206.368 3.48572 205.253 3.79536 204.438 4.4058C203.624 5.02509 203.216 5.93632 203.216 7.13951V10.6075C203.216 11.8107 203.579 12.7839 204.305 13.527C205.031 14.2613 206.085 14.6683 207.484 14.7479C206.589 14.8187 205.952 15.1018 205.571 15.5795C205.191 16.0572 204.845 16.7915 204.527 17.7735L202.234 25.3111H206.182L208.077 17.9947C208.263 17.3754 208.493 16.8358 208.767 16.3492C209.042 15.8714 209.449 15.6326 209.972 15.6326H212.026V25.3111H215.771ZM212.017 13.2704H209.37C208.528 13.2704 207.882 13.067 207.439 12.66C206.988 12.253 206.767 11.5453 206.767 10.5367V7.73225C206.767 6.8918 206.979 6.2902 207.395 5.91863C207.82 5.54706 208.316 5.36127 208.891 5.36127H212.008V13.2704H212.017ZM87.6593 54.9219V33.0965H99.9746V54.9219H96.1853V35.5028H91.4486V54.9307H87.6593V54.9219ZM103.49 54.9219V33.0965H111.307C112.733 33.0965 113.848 33.4061 114.663 34.0165C115.477 34.6358 115.885 35.5471 115.885 36.7502V40.6252C115.885 41.563 115.752 42.4211 115.486 43.2085C115.221 43.9959 114.742 44.6329 114.043 45.1106C113.344 45.5883 112.343 45.8272 111.024 45.8272H107.235V54.913H103.49V54.9219ZM107.243 43.9163H109.811C110.625 43.9163 111.245 43.6243 111.67 43.0493C112.095 42.4742 112.299 41.5453 112.299 40.2625V38.1569C112.299 37.051 112.104 36.246 111.723 35.7417C111.343 35.2374 110.865 34.9809 110.28 34.9809H107.243V43.9163ZM124.694 55.3642C123.481 55.3642 122.41 55.2315 121.48 54.9573C120.542 54.683 119.824 54.1345 119.311 53.294C118.797 52.4536 118.541 51.1885 118.541 49.4898V37.6792C118.541 36.3521 118.806 35.3347 119.329 34.6358C119.851 33.9369 120.586 33.4503 121.515 33.1761C122.454 32.9018 123.525 32.7691 124.729 32.7691C125.933 32.7691 127.022 32.9107 127.97 33.1938C128.917 33.4769 129.661 33.9723 130.201 34.6712C130.741 35.3701 131.006 36.3787 131.006 37.6792V49.4987C131.006 51.1973 130.741 52.4624 130.201 53.3029C129.661 54.1433 128.917 54.6919 127.97 54.9661C127.022 55.2315 125.933 55.3642 124.694 55.3642ZM124.729 53.3383C125.517 53.3383 126.155 53.1702 126.642 52.8251C127.129 52.4801 127.368 51.7547 127.368 50.6488V37.5642C127.368 36.4583 127.12 35.7328 126.615 35.4055C126.119 35.0693 125.482 34.9101 124.72 34.9101C123.932 34.9101 123.286 35.0782 122.79 35.4055C122.295 35.7417 122.038 36.4583 122.038 37.5642V50.64C122.038 51.7458 122.286 52.4713 122.79 52.8163C123.295 53.1613 123.941 53.3383 124.729 53.3383ZM134.76 54.9219V33.0965H139.178L143.242 48.8617L147.35 33.0965H151.733V54.9219H148.537V37.9711L144.508 54.9219H141.985L137.957 37.9711V54.9219H134.76ZM161.764 55.3642C160.524 55.3642 159.435 55.2315 158.488 54.9573C157.541 54.683 156.806 54.1345 156.275 53.294C155.752 52.4536 155.487 51.1885 155.487 49.4898V37.6792C155.487 36.3521 155.752 35.3347 156.275 34.6358C156.797 33.9369 157.541 33.4503 158.506 33.1761C159.462 32.9018 160.569 32.7691 161.799 32.7691C163.039 32.7691 164.119 32.9107 165.04 33.1938C165.96 33.4769 166.678 33.9723 167.191 34.6712C167.705 35.3701 167.961 36.3787 167.961 37.6792V41.8903H164.331V37.573C164.331 36.4141 164.092 35.6798 163.605 35.3613C163.118 35.0428 162.507 34.8835 161.773 34.8835C161.011 34.8835 160.391 35.0428 159.913 35.3613C159.435 35.6798 159.205 36.4229 159.205 37.573V50.6488C159.205 51.8078 159.444 52.542 159.913 52.8605C160.383 53.179 161.002 53.3383 161.773 53.3383C162.534 53.3383 163.154 53.179 163.632 52.8605C164.101 52.542 164.34 51.7989 164.34 50.6488V46.8004H167.97V49.4987C167.97 51.1973 167.713 52.4624 167.2 53.3029C166.686 54.1433 165.96 54.6919 165.031 54.9661C164.083 55.2315 163.003 55.3642 161.764 55.3642ZM171.512 54.9219V33.0965H181.932V35.494H175.257V42.253H180.746V44.916H175.257V52.5597H181.932V54.9219H171.512ZM184.854 54.9219V33.0965H192.672C194.097 33.0965 195.213 33.4061 196.027 34.0165C196.842 34.6358 197.249 35.5471 197.249 36.7502V40.6252C197.249 41.563 197.116 42.4211 196.851 43.2085C196.585 43.9959 196.107 44.6329 195.407 45.1106C194.708 45.5883 193.708 45.8272 192.388 45.8272H188.599V54.913H184.854V54.9219ZM188.608 43.9163H191.175C191.99 43.9163 192.61 43.6243 193.035 43.0493C193.46 42.4742 193.663 41.5453 193.663 40.2625V38.1569C193.663 37.051 193.468 36.246 193.088 35.7417C192.707 35.2374 192.229 34.9809 191.645 34.9809H188.608V43.9163ZM200.215 54.9219V33.0965H207.988C209.387 33.0965 210.485 33.4061 211.282 34.0165C212.088 34.6358 212.486 35.5471 212.486 36.7502V39.2982C212.486 40.6517 212.088 41.6868 211.3 42.4034C210.981 42.6954 210.609 42.9166 210.175 43.0493C209.741 43.182 209.343 43.2616 208.971 43.2881C209.423 43.3147 209.856 43.3766 210.273 43.4739C210.698 43.5712 211.078 43.757 211.415 44.0313C211.813 44.4029 212.132 44.854 212.38 45.3937C212.628 45.9334 212.752 46.5792 212.752 47.3135V50.3745C212.752 51.6043 212.53 52.5509 212.096 53.1967C211.663 53.8514 211.061 54.3026 210.281 54.5415C209.502 54.7892 208.59 54.913 207.537 54.913H200.215V54.9219ZM203.845 42.5892H206.448C207.262 42.5892 207.891 42.3592 208.342 41.8903C208.794 41.4214 209.015 40.696 209.015 39.714V37.3518C209.015 36.5114 208.812 35.9098 208.404 35.5382C207.997 35.1666 207.501 34.9809 206.926 34.9809H203.845V42.5892ZM203.845 53.0817H206.767C207.475 53.0817 208.05 52.9048 208.484 52.542C208.918 52.1882 209.139 51.3919 209.139 50.1622V47.3931C209.139 46.3138 208.891 45.606 208.387 45.2699C207.891 44.9337 207.271 44.7744 206.528 44.7744H203.845V53.0817ZM215.771 54.9219V33.0965H219.011V48.092L224.97 33.0965H228.166V54.9219H224.97V40.6694L219.011 54.9219H215.771ZM237.683 55.3642C236.444 55.3642 235.355 55.2315 234.407 54.9573C233.46 54.683 232.725 54.1345 232.194 53.294C231.672 52.4536 231.406 51.1885 231.406 49.4898V37.6792C231.406 36.3521 231.672 35.3347 232.194 34.6358C232.716 33.9369 233.46 33.4503 234.425 33.1761C235.39 32.9018 236.488 32.7691 237.719 32.7691C238.958 32.7691 240.038 32.9107 240.959 33.1938C241.88 33.4769 242.597 33.9723 243.11 34.6712C243.624 35.3701 243.881 36.3787 243.881 37.6792V41.8903H240.251V37.573C240.251 36.4141 240.003 35.6798 239.525 35.3613C239.038 35.0428 238.427 34.8835 237.692 34.8835C236.931 34.8835 236.311 35.0428 235.833 35.3613C235.355 35.6798 235.125 36.4229 235.125 37.573V50.6488C235.125 51.8078 235.364 52.542 235.833 52.8605C236.302 53.179 236.922 53.3383 237.692 53.3383C238.462 53.3383 239.073 53.179 239.551 52.8605C240.029 52.542 240.26 51.7989 240.26 50.6488V46.8004H243.89V49.4987C243.89 51.1973 243.633 52.4624 243.119 53.3029C242.606 54.1433 241.88 54.6919 240.95 54.9661C240.003 55.2315 238.914 55.3642 237.683 55.3642ZM246.962 46.0218V43.7305H255.098V46.0218H246.962Z" fill="white"/>
<path d="M272.301 55.3642C271.061 55.3642 269.972 55.2315 269.025 54.9572C268.078 54.683 267.334 54.1345 266.794 53.294C266.254 52.4536 265.988 51.1796 265.988 49.4544V44.8363H261.721V54.9219H258.091V33.0964H261.721V42.2884H265.988V37.7057C265.988 36.3787 266.254 35.3524 266.794 34.6447C267.334 33.9281 268.087 33.4415 269.043 33.1672C270.008 32.893 271.106 32.7603 272.336 32.7603C273.576 32.7603 274.656 32.9018 275.594 33.1849C276.533 33.468 277.25 33.9634 277.763 34.6623C278.277 35.3613 278.534 36.3787 278.534 37.7057V49.4544C278.534 51.1796 278.277 52.4624 277.763 53.294C277.25 54.1345 276.524 54.683 275.594 54.9572C274.665 55.2315 273.567 55.3642 272.301 55.3642ZM272.345 53.3383C273.08 53.3383 273.691 53.1879 274.178 52.8782C274.665 52.5686 274.904 51.852 274.904 50.7196V37.4934C274.904 36.3875 274.656 35.6797 274.178 35.3701C273.691 35.0605 273.08 34.9101 272.345 34.9101C271.584 34.9101 270.964 35.0605 270.486 35.3701C270.008 35.6797 269.778 36.3875 269.778 37.4934V50.7107C269.778 51.8431 270.017 52.5597 270.486 52.8694C270.964 53.179 271.584 53.3383 272.345 53.3383ZM281.5 54.9219V33.0964H292V35.494H285.289V54.9219H281.5Z" fill="#0089CD"/>
</g>
<defs>
<radialGradient id="paint0_angular_181_618" cx="0" cy="0" r="1" gradientUnits="userSpaceOnUse" gradientTransform="translate(39.8411 27.4255) rotate(-32.9689) scale(60.1519 60.8151)">
<stop offset="0.0259647" stop-color="#ECECEC"/>
<stop offset="0.484375" stop-color="#5C5F63"/>
<stop offset="0.573408" stop-color="#CFD0D1"/>
<stop offset="0.744792" stop-color="#C1C1C1"/>
<stop offset="0.83216" stop-color="#D8DBDD"/>
<stop offset="0.92915" stop-color="#B4B4B5"/>
</radialGradient>
<clipPath id="clip0_181_618">
<rect width="292" height="60" fill="white"/>
</clipPath>
</defs>
</svg>
