<svg width="18" height="24" viewBox="0 0 18 24" fill="none" xmlns="http://www.w3.org/2000/svg">
<path d="M9 0C4.03594 0 0 4.03594 0 9C0 15.6375 8.30156 23.5312 8.65781 23.8641C8.75625 23.9531 8.87813 24 9 24C9.12187 24 9.24844 23.9531 9.34219 23.8641C9.69844 23.5312 18 15.6375 18 9C18 4.03594 13.9641 0 9 0ZM9 14.0016C6.24375 14.0016 3.99844 11.7563 3.99844 9C3.99844 6.24375 6.24375 3.99844 9 3.99844C11.7563 3.99844 14.0016 6.24375 14.0016 9C14.0016 11.7563 11.7563 14.0016 9 14.0016Z" fill="#0089CD"/>
</svg>
